# xmcd CD database file
#
# Track frame offsets:
#	150
#	33038
#	78089
#	134756
#	165719
#	216502
#	254534
#
# Disc length: 4057 seconds
#
# Revision: 0
# Processed by: cddbd v1.5.2PL0 Copyright (c) Steve Scherf et al.
# Submitted via: CDex 1.51
#
DISCID=5e0fd707
DTITLE=Raymond Boni, Jo Mc Phee - Voices
DYEAR=1900
DGENRE=Jazz
TTITLE0=Voices I
TTITLE1=Dream I
TTITLE2=Voices II
TTITLE3=Dream II
TTITLE4=Voices III
TTITLE5=Dream III
TTITLE6=Voices IV
EXTD=
EXTT0=
EXTT1=
EXTT2=
EXTT3=
EXTT4=
EXTT5=
EXTT6=
PLAYORDER=
